####
#
# OBJ File Generated by Meshlab
#
####
# Object L_ThreePin.obj
#
# Vertices: 195
# Faces: 386
#
####
vn -0.301511 0.301511 0.904534
v 2.500000 -1.000000 10.000000
vn 0.301511 0.301511 0.904534
v 5.500000 -1.000000 10.000000
vn 0.301511 -0.301511 0.904534
v 1.408629 1.000000 10.000000
vn 0.594864 -0.408350 0.692378
v 8.656637 -5.942444 10.000000
vn 0.643984 -0.325419 0.692378
v 9.371447 -4.735606 10.000000
vn 0.715537 -0.059925 0.696000
v 10.476551 -0.701323 10.000000
vn 0.714474 -0.000000 0.699662
v 10.500000 0.000000 10.000000
vn 0.715537 0.059925 0.696000
v 10.476551 0.701323 10.000000
vn 0.707077 0.143719 0.692378
v 10.289598 2.091453 10.000000
vn 0.024110 -0.721132 0.692378
v 0.350857 -10.494137 10.000000
vn 0.120012 -0.711484 0.692378
v 1.746458 -10.353738 10.000000
vn -0.301511 -0.301511 0.904534
v 2.500000 -7.000000 10.000000
vn 0.213773 -0.689140 0.692378
v 3.110893 -10.028577 10.000000
vn -0.167266 -0.701879 0.692378
v -2.434112 -10.213965 10.000000
vn -0.072223 -0.717911 0.692378
v -1.051004 -10.447268 10.000000
vn 0.301511 -0.301511 0.904534
v -2.500000 -7.000000 10.000000
vn 0.681612 -0.236682 0.692378
v 9.919025 -3.444261 10.000000
vn 0.707077 -0.143719 0.692378
v 10.289598 -2.091454 10.000000
vn 0.303719 -0.654498 0.692378
v 4.419815 -9.524454 10.000000
vn 0.388245 -0.608176 0.692378
v 5.649864 -8.850368 10.000000
vn 0.301511 -0.301511 0.904534
v 5.500000 -7.000000 10.000000
vn 0.465843 -0.551002 0.692378
v 6.779093 -8.018349 10.000000
vn 0.535128 -0.483995 0.692378
v 7.787348 -7.043240 10.000000
vn -0.259325 -0.673323 0.692378
v -3.773782 -9.798396 10.000000
vn 0.681612 0.236682 0.692378
v 9.919025 3.444261 10.000000
vn 0.643984 0.325419 0.692378
v 9.371447 4.735606 10.000000
vn 0.594864 0.408350 0.692378
v 8.656637 5.942444 10.000000
vn 0.535128 0.483995 0.692378
v 7.787348 7.043240 10.000000
vn -0.620810 0.367706 0.692378
v -9.034217 5.350975 10.000000
vn -0.664281 0.281679 0.692378
v -9.666824 4.099087 10.000000
vn -0.301511 0.301511 0.904534
v -5.500000 -1.000000 10.000000
vn -0.695898 0.190626 0.692378
v -10.126926 2.774052 10.000000
vn -0.620810 -0.367706 0.692378
v -9.034217 -5.350975 10.000000
vn -0.566260 -0.447171 0.692378
v -8.240394 -6.507374 10.000000
vn -0.501606 -0.518656 0.692378
v -7.299520 -7.547648 10.000000
vn -0.301511 -0.301511 0.904534
v -5.500000 -7.000000 10.000000
vn -0.428000 -0.580886 0.692378
v -6.228387 -8.453236 10.000000
vn -0.346757 -0.632750 0.692378
v -5.046108 -9.207974 10.000000
vn -0.346757 0.632750 0.692378
v -5.046108 9.207973 10.000000
vn -0.301511 -0.301511 0.904534
v -1.591371 1.000000 10.000000
vn -0.259325 0.673323 0.692378
v -3.773782 9.798397 10.000000
vn -0.301511 0.301511 0.904534
v -1.591371 7.000000 10.000000
vn -0.167266 0.701879 0.692378
v -2.434112 10.213964 10.000000
vn 0.465843 0.551002 0.692378
v 6.779093 8.018349 10.000000
vn 0.388245 0.608176 0.692378
v 5.649864 8.850368 10.000000
vn 0.301511 0.301511 0.904534
v 1.408629 7.000000 10.000000
vn 0.303719 0.654498 0.692378
v 4.419815 9.524454 10.000000
vn 0.213773 0.689140 0.692378
v 3.110893 10.028576 10.000000
vn -0.715097 -0.096171 0.692378
v -10.406314 -1.399513 10.000000
vn -0.695898 -0.190626 0.692378
v -10.126926 -2.774052 10.000000
vn -0.664281 -0.281679 0.692378
v -9.666824 -4.099087 10.000000
vn -0.428000 0.580887 0.692378
v -6.228387 8.453236 10.000000
vn -0.501606 0.518657 0.692378
v -7.299520 7.547649 10.000000
vn -0.566260 0.447171 0.692378
v -8.240394 6.507374 10.000000
vn -0.715097 0.096171 0.692378
v -10.406314 1.399513 10.000000
vn -0.721535 0.000000 0.692378
v -10.500000 0.000000 10.000000
vn 0.120013 0.711484 0.692378
v 1.746458 10.353737 10.000000
vn 0.024110 0.721132 0.692378
v 0.350857 10.494137 10.000000
vn -0.072223 0.717912 0.692378
v -1.051004 10.447268 10.000000
vn 0.301511 0.301511 0.904534
v -2.500000 -1.000000 10.000000
vn 0.714474 0.000000 -0.699662
v 10.500000 0.000000 -20.000000
vn 0.715537 -0.059925 -0.696000
v 10.476551 -0.701323 -20.000000
vn 0.707077 -0.143719 -0.692378
v 10.289598 -2.091454 -20.000000
vn 0.681612 -0.236682 -0.692378
v 9.919025 -3.444261 -20.000000
vn 0.643984 -0.325419 -0.692378
v 9.371447 -4.735606 -20.000000
vn 0.594864 -0.408350 -0.692378
v 8.656637 -5.942444 -20.000000
vn 0.535128 -0.483995 -0.692378
v 7.787348 -7.043240 -20.000000
vn 0.465843 -0.551002 -0.692378
v 6.779093 -8.018349 -20.000000
vn 0.388245 -0.608176 -0.692378
v 5.649864 -8.850368 -20.000000
vn 0.303719 -0.654498 -0.692378
v 4.419815 -9.524454 -20.000000
vn 0.213773 -0.689140 -0.692378
v 3.110893 -10.028577 -20.000000
vn 0.120012 -0.711484 -0.692378
v 1.746458 -10.353738 -20.000000
vn 0.024110 -0.721132 -0.692378
v 0.350857 -10.494137 -20.000000
vn -0.072223 -0.717911 -0.692378
v -1.051004 -10.447268 -20.000000
vn -0.167266 -0.701879 -0.692378
v -2.434112 -10.213965 -20.000000
vn -0.259325 -0.673323 -0.692378
v -3.773782 -9.798396 -20.000000
vn -0.346757 -0.632750 -0.692378
v -5.046108 -9.207974 -20.000000
vn -0.428000 -0.580886 -0.692378
v -6.228387 -8.453236 -20.000000
vn -0.501606 -0.518657 -0.692378
v -7.299520 -7.547648 -20.000000
vn -0.566260 -0.447171 -0.692378
v -8.240394 -6.507374 -20.000000
vn -0.620810 -0.367706 -0.692378
v -9.034217 -5.350975 -20.000000
vn -0.664281 -0.281680 -0.692378
v -9.666824 -4.099087 -20.000000
vn -0.695898 -0.190626 -0.692378
v -10.126926 -2.774052 -20.000000
vn -0.715097 -0.096171 -0.692378
v -10.406314 -1.399513 -20.000000
vn -0.721535 -0.000000 -0.692378
v -10.500000 0.000000 -20.000000
vn -0.715097 0.096171 -0.692378
v -10.406314 1.399513 -20.000000
vn -0.695898 0.190626 -0.692378
v -10.126926 2.774052 -20.000000
vn -0.664281 0.281679 -0.692378
v -9.666824 4.099087 -20.000000
vn -0.620810 0.367706 -0.692378
v -9.034217 5.350975 -20.000000
vn -0.566260 0.447171 -0.692378
v -8.240394 6.507374 -20.000000
vn -0.501606 0.518657 -0.692378
v -7.299520 7.547649 -20.000000
vn -0.428000 0.580887 -0.692378
v -6.228387 8.453236 -20.000000
vn -0.346757 0.632750 -0.692378
v -5.046108 9.207973 -20.000000
vn -0.259325 0.673323 -0.692378
v -3.773782 9.798397 -20.000000
vn -0.167266 0.701879 -0.692378
v -2.434112 10.213964 -20.000000
vn -0.072223 0.717912 -0.692378
v -1.051004 10.447268 -20.000000
vn 0.024110 0.721132 -0.692378
v 0.350857 10.494137 -20.000000
vn 0.120013 0.711484 -0.692378
v 1.746458 10.353737 -20.000000
vn 0.213773 0.689140 -0.692378
v 3.110893 10.028576 -20.000000
vn 0.303719 0.654498 -0.692378
v 4.419815 9.524454 -20.000000
vn 0.388245 0.608176 -0.692378
v 5.649864 8.850368 -20.000000
vn 0.465843 0.551002 -0.692378
v 6.779093 8.018349 -20.000000
vn 0.535128 0.483995 -0.692378
v 7.787348 7.043240 -20.000000
vn 0.594864 0.408350 -0.692378
v 8.656637 5.942444 -20.000000
vn 0.643984 0.325419 -0.692378
v 9.371447 4.735606 -20.000000
vn 0.681612 0.236682 -0.692378
v 9.919025 3.444261 -20.000000
vn 0.707077 0.143719 -0.692378
v 10.289598 2.091453 -20.000000
vn 0.715537 0.059925 -0.696000
v 10.476551 0.701323 -20.000000
vn 0.647711 0.228851 -0.726703
v -3.111496 -1.099361 -20.000000
vn 0.677071 0.116095 -0.726703
v -3.252532 -0.557703 -20.000000
vn 0.686952 0.000000 -0.726703
v -3.300000 0.000000 -20.000000
vn 0.677071 -0.116095 -0.726703
v -3.252532 0.557703 -20.000000
vn -0.087255 0.681388 -0.726703
v 0.419159 -3.273272 -20.000000
vn 0.029155 0.686333 -0.726703
v -0.140056 -3.297027 -20.000000
vn 0.144726 0.671534 -0.726703
v -0.695242 -3.225933 -20.000000
vn 0.256135 0.637415 -0.726703
v -1.230427 -3.062034 -20.000000
vn 0.360174 0.584960 -0.726703
v -1.730214 -2.810046 -20.000000
vn -0.625970 -0.282957 -0.726703
v 3.007054 1.359274 -20.000000
vn -0.664786 -0.173097 -0.726703
v 3.193519 0.831528 -20.000000
vn -0.684477 -0.058258 -0.726703
v 3.288112 0.279860 -20.000000
vn 0.453852 0.515676 -0.726703
v -2.180226 -2.477219 -20.000000
vn 0.534473 0.431557 -0.726703
v -2.567518 -2.073126 -20.000000
vn 0.599719 0.335023 -0.726703
v -2.880947 -1.609393 -20.000000
vn -0.309268 -0.613397 -0.726703
v 1.485672 2.946655 -20.000000
vn -0.408484 -0.552308 -0.726703
v 1.962289 2.653191 -20.000000
vn -0.495949 -0.475329 -0.726703
v 2.382455 2.283399 -20.000000
vn -0.569147 -0.384676 -0.726702
v 2.734081 1.847917 -20.000000
vn 0.453852 -0.515676 -0.726703
v -2.180226 2.477219 -20.000000
vn 0.360174 -0.584960 -0.726703
v -1.730214 2.810046 -20.000000
vn 0.256134 -0.637415 -0.726703
v -1.230427 3.062034 -20.000000
vn 0.144727 -0.671534 -0.726703
v -0.695242 3.225932 -20.000000
vn 0.029155 -0.686333 -0.726703
v -0.140056 3.297027 -20.000000
vn 0.647711 -0.228851 -0.726703
v -3.111496 1.099361 -20.000000
vn 0.599719 -0.335023 -0.726703
v -2.880947 1.609393 -20.000000
vn 0.534473 -0.431557 -0.726703
v -2.567518 2.073126 -20.000000
vn -0.408484 0.552308 -0.726703
v 1.962289 -2.653191 -20.000000
vn -0.309269 0.613397 -0.726703
v 1.485672 -2.946655 -20.000000
vn -0.201155 0.656841 -0.726703
v 0.966315 -3.155350 -20.000000
vn -0.087255 -0.681388 -0.726703
v 0.419159 3.273272 -20.000000
vn -0.201155 -0.656841 -0.726703
v 0.966315 3.155350 -20.000000
vn -0.664786 0.173097 -0.726703
v 3.193519 -0.831528 -20.000000
vn -0.625970 0.282957 -0.726703
v 3.007054 -1.359274 -20.000000
vn -0.569147 0.384676 -0.726703
v 2.734081 -1.847917 -20.000000
vn -0.495949 0.475329 -0.726703
v 2.382455 -2.283399 -20.000000
vn -0.684477 0.058258 -0.726703
v 3.288112 -0.279860 -20.000000
vn 0.577350 0.577350 0.577350
v 1.408629 7.000000 20.000000
vn 0.577350 -0.577350 0.577350
v 1.408629 1.000000 20.000000
vn -0.577350 0.577350 0.577350
v -1.591371 7.000000 20.000000
vn -0.577350 -0.577350 0.577350
v -1.591371 1.000000 20.000000
vn -0.577350 -0.577350 0.577350
v -5.500000 -7.000000 20.000000
vn -0.577350 0.577350 0.577350
v -5.500000 -1.000000 20.000000
vn 0.577350 -0.577350 0.577350
v -2.500000 -7.000000 20.000000
vn 0.577350 0.577350 0.577350
v -2.500000 -1.000000 20.000000
vn 0.577350 0.577350 0.577350
v 5.500000 -1.000000 20.000000
vn 0.577350 -0.577350 0.577350
v 5.500000 -7.000000 20.000000
vn -0.577350 0.577350 0.577350
v 2.500000 -1.000000 20.000000
vn -0.577350 -0.577350 0.577350
v 2.500000 -7.000000 20.000000
vn 0.725229 -0.000000 -0.688508
v -3.300000 0.000000 -10.000000
vn 0.714797 -0.122564 -0.688508
v -3.252532 0.557703 -10.000000
vn 0.683802 -0.241603 -0.688508
v -3.111496 1.099361 -10.000000
vn 0.633135 -0.353691 -0.688508
v -2.880947 1.609393 -10.000000
vn 0.564254 -0.455603 -0.688508
v -2.567518 2.073126 -10.000000
vn 0.479140 -0.544409 -0.688508
v -2.180226 2.477219 -10.000000
vn 0.380243 -0.617554 -0.688508
v -1.730214 2.810046 -10.000000
vn 0.270406 -0.672932 -0.688508
v -1.230427 3.062034 -10.000000
vn 0.152791 -0.708951 -0.688508
v -0.695242 3.225932 -10.000000
vn 0.030780 -0.724575 -0.688508
v -0.140056 3.297027 -10.000000
vn -0.092117 -0.719355 -0.688508
v 0.419159 3.273272 -10.000000
vn -0.212364 -0.693440 -0.688508
v 0.966315 3.155350 -10.000000
vn -0.326501 -0.647576 -0.688508
v 1.485672 2.946655 -10.000000
vn -0.431245 -0.583082 -0.688508
v 1.962289 2.653191 -10.000000
vn -0.523584 -0.501814 -0.688508
v 2.382455 2.283399 -10.000000
vn -0.600859 -0.406110 -0.688508
v 2.734081 1.847917 -10.000000
vn -0.660849 -0.298723 -0.688508
v 3.007054 1.359274 -10.000000
vn -0.701828 -0.182742 -0.688508
v 3.193519 0.831528 -10.000000
vn -0.722616 -0.061504 -0.688508
v 3.288112 0.279860 -10.000000
vn -0.722616 0.061504 -0.688508
v 3.288112 -0.279860 -10.000000
vn -0.701828 0.182742 -0.688508
v 3.193519 -0.831528 -10.000000
vn -0.660849 0.298723 -0.688508
v 3.007054 -1.359274 -10.000000
vn -0.600859 0.406110 -0.688508
v 2.734081 -1.847917 -10.000000
vn -0.523584 0.501814 -0.688508
v 2.382455 -2.283399 -10.000000
vn -0.431245 0.583082 -0.688508
v 1.962289 -2.653191 -10.000000
vn -0.326501 0.647576 -0.688508
v 1.485672 -2.946655 -10.000000
vn -0.212364 0.693440 -0.688508
v 0.966315 -3.155350 -10.000000
vn -0.092117 0.719355 -0.688508
v 0.419159 -3.273272 -10.000000
vn 0.030779 0.724575 -0.688508
v -0.140056 -3.297027 -10.000000
vn 0.152790 0.708951 -0.688508
v -0.695242 -3.225933 -10.000000
vn 0.270407 0.672932 -0.688508
v -1.230427 -3.062034 -10.000000
vn 0.380243 0.617553 -0.688508
v -1.730214 -2.810046 -10.000000
vn 0.479140 0.544409 -0.688508
v -2.180226 -2.477219 -10.000000
vn 0.564254 0.455603 -0.688508
v -2.567518 -2.073126 -10.000000
vn 0.633135 0.353691 -0.688508
v -2.880947 -1.609393 -10.000000
vn 0.683802 0.241603 -0.688508
v -3.111496 -1.099361 -10.000000
vn 0.714797 0.122564 -0.688508
v -3.252532 -0.557703 -10.000000
vn 0.000000 0.000000 -1.000000
v 0.000000 0.000000 -10.000000
# 195 vertices, 0 vertices normals

f 1//1 2//2 3//3
f 4//4 5//5 2//2
f 6//6 7//7 2//2
f 2//2 7//7 8//8
f 2//2 8//8 9//9
f 10//10 11//11 12//12
f 12//12 11//11 13//13
f 14//14 15//15 16//16
f 5//5 17//17 2//2
f 2//2 17//17 18//18
f 2//2 18//18 6//6
f 13//13 19//19 12//12
f 12//12 19//19 20//20
f 12//12 20//20 21//21
f 21//21 20//20 22//22
f 21//21 22//22 2//2
f 2//2 22//22 23//23
f 2//2 23//23 4//4
f 14//14 16//16 24//24
f 9//9 25//25 2//2
f 2//2 25//25 26//26
f 2//2 26//26 3//3
f 3//3 26//26 27//27
f 3//3 27//27 28//28
f 29//29 30//30 31//31
f 31//31 30//30 32//32
f 33//33 34//34 31//31
f 31//31 34//34 35//35
f 31//31 35//35 36//36
f 36//36 35//35 37//37
f 36//36 37//37 16//16
f 16//16 37//37 38//38
f 16//16 38//38 24//24
f 39//39 40//40 41//41
f 41//41 40//40 42//42
f 41//41 42//42 43//43
f 28//28 44//44 3//3
f 3//3 44//44 45//45
f 3//3 45//45 46//46
f 46//46 45//45 47//47
f 46//46 47//47 48//48
f 49//49 50//50 31//31
f 31//31 50//50 51//51
f 31//31 51//51 33//33
f 39//39 52//52 40//40
f 40//40 52//52 53//53
f 40//40 53//53 54//54
f 32//32 55//55 31//31
f 31//31 55//55 56//56
f 31//31 56//56 49//49
f 48//48 57//57 46//46
f 46//46 57//57 58//58
f 46//46 58//58 42//42
f 42//42 58//58 59//59
f 42//42 59//59 43//43
f 54//54 29//29 40//40
f 40//40 29//29 31//31
f 40//40 31//31 3//3
f 3//3 31//31 60//60
f 3//3 60//60 1//1
f 1//1 60//60 16//16
f 1//1 16//16 12//12
f 12//12 16//16 15//15
f 12//12 15//15 10//10
f 8//8 7//7 61//61
f 61//61 7//7 62//62
f 7//7 6//6 62//62
f 62//62 6//6 18//18
f 62//62 18//18 63//63
f 63//63 18//18 17//17
f 63//63 17//17 64//64
f 64//64 17//17 5//5
f 64//64 5//5 65//65
f 65//65 5//5 4//4
f 65//65 4//4 66//66
f 66//66 4//4 23//23
f 66//66 23//23 67//67
f 67//67 23//23 22//22
f 67//67 22//22 68//68
f 68//68 22//22 20//20
f 68//68 20//20 69//69
f 69//69 20//20 19//19
f 69//69 19//19 70//70
f 70//70 19//19 13//13
f 70//70 13//13 71//71
f 71//71 13//13 11//11
f 71//71 11//11 72//72
f 72//72 11//11 10//10
f 72//72 10//10 73//73
f 73//73 10//10 15//15
f 73//73 15//15 74//74
f 74//74 15//15 14//14
f 74//74 14//14 75//75
f 75//75 14//14 24//24
f 75//75 24//24 76//76
f 76//76 24//24 38//38
f 76//76 38//38 77//77
f 77//77 38//38 37//37
f 77//77 37//37 78//78
f 78//78 37//37 35//35
f 78//78 35//35 79//79
f 79//79 35//35 34//34
f 79//79 34//34 80//80
f 80//80 34//34 33//33
f 80//80 33//33 81//81
f 81//81 33//33 51//51
f 81//81 51//51 82//82
f 82//82 51//51 50//50
f 82//82 50//50 83//83
f 83//83 50//50 49//49
f 83//83 49//49 84//84
f 84//84 49//49 56//56
f 84//84 56//56 85//85
f 85//85 56//56 55//55
f 85//85 55//55 86//86
f 86//86 55//55 32//32
f 86//86 32//32 87//87
f 87//87 32//32 30//30
f 87//87 30//30 88//88
f 88//88 30//30 29//29
f 88//88 29//29 89//89
f 89//89 29//29 54//54
f 89//89 54//54 90//90
f 90//90 54//54 53//53
f 90//90 53//53 91//91
f 91//91 53//53 52//52
f 91//91 52//52 92//92
f 92//92 52//52 39//39
f 92//92 39//39 93//93
f 93//93 39//39 41//41
f 93//93 41//41 94//94
f 94//94 41//41 43//43
f 94//94 43//43 95//95
f 95//95 43//43 59//59
f 95//95 59//59 96//96
f 96//96 59//59 58//58
f 96//96 58//58 97//97
f 97//97 58//58 57//57
f 97//97 57//57 98//98
f 98//98 57//57 48//48
f 98//98 48//48 99//99
f 99//99 48//48 47//47
f 99//99 47//47 100//100
f 100//100 47//47 45//45
f 100//100 45//45 101//101
f 101//101 45//45 44//44
f 101//101 44//44 102//102
f 102//102 44//44 28//28
f 102//102 28//28 103//103
f 103//103 28//28 27//27
f 103//103 27//27 104//104
f 104//104 27//27 26//26
f 104//104 26//26 105//105
f 105//105 26//26 25//25
f 105//105 25//25 106//106
f 106//106 25//25 9//9
f 106//106 9//9 107//107
f 107//107 9//9 8//8
f 107//107 8//8 108//108
f 108//108 8//8 61//61
f 109//109 83//83 110//110
f 110//110 83//83 84//84
f 110//110 84//84 111//111
f 111//111 84//84 85//85
f 111//111 85//85 112//112
f 113//113 73//73 114//114
f 114//114 73//73 74//74
f 114//114 74//74 115//115
f 115//115 74//74 75//75
f 115//115 75//75 116//116
f 116//116 75//75 76//76
f 116//116 76//76 117//117
f 118//118 106//106 119//119
f 119//119 106//106 107//107
f 119//119 107//107 120//120
f 76//76 77//77 117//117
f 117//117 77//77 78//78
f 117//117 78//78 121//121
f 121//121 78//78 79//79
f 121//121 79//79 122//122
f 122//122 79//79 80//80
f 122//122 80//80 123//123
f 123//123 80//80 81//81
f 123//123 81//81 109//109
f 109//109 81//81 82//82
f 109//109 82//82 83//83
f 124//124 101//101 125//125
f 125//125 101//101 102//102
f 125//125 102//102 126//126
f 126//126 102//102 103//103
f 126//126 103//103 127//127
f 127//127 103//103 104//104
f 127//127 104//104 118//118
f 118//118 104//104 105//105
f 118//118 105//105 106//106
f 128//128 92//92 129//129
f 129//129 92//92 93//93
f 129//129 93//93 130//130
f 130//130 93//93 94//94
f 130//130 94//94 131//131
f 131//131 94//94 95//95
f 131//131 95//95 132//132
f 85//85 86//86 112//112
f 112//112 86//86 87//87
f 112//112 87//87 133//133
f 133//133 87//87 88//88
f 133//133 88//88 134//134
f 134//134 88//88 89//89
f 134//134 89//89 135//135
f 135//135 89//89 90//90
f 135//135 90//90 128//128
f 128//128 90//90 91//91
f 128//128 91//91 92//92
f 136//136 69//69 137//137
f 137//137 69//69 70//70
f 137//137 70//70 138//138
f 138//138 70//70 71//71
f 138//138 71//71 113//113
f 113//113 71//71 72//72
f 113//113 72//72 73//73
f 95//95 96//96 132//132
f 132//132 96//96 97//97
f 132//132 97//97 139//139
f 139//139 97//97 98//98
f 139//139 98//98 140//140
f 140//140 98//98 99//99
f 140//140 99//99 124//124
f 124//124 99//99 100//100
f 124//124 100//100 101//101
f 141//141 64//64 142//142
f 142//142 64//64 65//65
f 142//142 65//65 143//143
f 143//143 65//65 66//66
f 143//143 66//66 144//144
f 144//144 66//66 67//67
f 144//144 67//67 136//136
f 136//136 67//67 68//68
f 136//136 68//68 69//69
f 107//107 108//108 120//120
f 120//120 108//108 61//61
f 120//120 61//61 145//145
f 145//145 61//61 62//62
f 145//145 62//62 141//141
f 141//141 62//62 63//63
f 141//141 63//63 64//64
f 146//146 147//147 46//46
f 46//46 147//147 3//3
f 148//148 146//146 42//42
f 42//42 146//146 46//46
f 149//149 148//148 40//40
f 40//40 148//148 42//42
f 147//147 149//149 3//3
f 3//3 149//149 40//40
f 148//148 149//149 146//146
f 146//146 149//149 147//147
f 150//150 151//151 36//36
f 36//36 151//151 31//31
f 152//152 150//150 16//16
f 16//16 150//150 36//36
f 153//153 152//152 60//60
f 60//60 152//152 16//16
f 151//151 153//153 31//31
f 31//31 153//153 60//60
f 152//152 153//153 150//150
f 150//150 153//153 151//151
f 154//154 155//155 2//2
f 2//2 155//155 21//21
f 156//156 154//154 1//1
f 1//1 154//154 2//2
f 157//157 156//156 12//12
f 12//12 156//156 1//1
f 155//155 157//157 21//21
f 21//21 157//157 12//12
f 156//156 157//157 154//154
f 154//154 157//157 155//155
f 158//158 111//111 159//159
f 159//159 111//111 112//112
f 159//159 112//112 160//160
f 160//160 112//112 133//133
f 160//160 133//133 161//161
f 161//161 133//133 134//134
f 161//161 134//134 162//162
f 162//162 134//134 135//135
f 162//162 135//135 163//163
f 163//163 135//135 128//128
f 163//163 128//128 164//164
f 164//164 128//128 129//129
f 164//164 129//129 165//165
f 165//165 129//129 130//130
f 165//165 130//130 166//166
f 166//166 130//130 131//131
f 166//166 131//131 167//167
f 167//167 131//131 132//132
f 167//167 132//132 168//168
f 168//168 132//132 139//139
f 168//168 139//139 169//169
f 169//169 139//139 140//140
f 169//169 140//140 170//170
f 170//170 140//140 124//124
f 170//170 124//124 171//171
f 171//171 124//124 125//125
f 171//171 125//125 172//172
f 172//172 125//125 126//126
f 172//172 126//126 173//173
f 173//173 126//126 127//127
f 173//173 127//127 174//174
f 174//174 127//127 118//118
f 174//174 118//118 175//175
f 175//175 118//118 119//119
f 175//175 119//119 176//176
f 176//176 119//119 120//120
f 176//176 120//120 177//177
f 177//177 120//120 145//145
f 177//177 145//145 178//178
f 178//178 145//145 141//141
f 178//178 141//141 179//179
f 179//179 141//141 142//142
f 179//179 142//142 180//180
f 180//180 142//142 143//143
f 180//180 143//143 181//181
f 181//181 143//143 144//144
f 181//181 144//144 182//182
f 182//182 144//144 136//136
f 182//182 136//136 183//183
f 183//183 136//136 137//137
f 183//183 137//137 184//184
f 184//184 137//137 138//138
f 184//184 138//138 185//185
f 185//185 138//138 113//113
f 185//185 113//113 186//186
f 186//186 113//113 114//114
f 186//186 114//114 187//187
f 187//187 114//114 115//115
f 187//187 115//115 188//188
f 188//188 115//115 116//116
f 188//188 116//116 189//189
f 189//189 116//116 117//117
f 189//189 117//117 190//190
f 190//190 117//117 121//121
f 190//190 121//121 191//191
f 191//191 121//121 122//122
f 191//191 122//122 192//192
f 192//192 122//122 123//123
f 192//192 123//123 193//193
f 193//193 123//123 109//109
f 193//193 109//109 194//194
f 194//194 109//109 110//110
f 194//194 110//110 158//158
f 158//158 110//110 111//111
f 158//158 159//159 195//195
f 192//192 193//193 195//195
f 195//195 193//193 194//194
f 195//195 194//194 158//158
f 189//189 190//190 195//195
f 195//195 190//190 191//191
f 195//195 191//191 192//192
f 186//186 187//187 195//195
f 195//195 187//187 188//188
f 195//195 188//188 189//189
f 183//183 184//184 195//195
f 195//195 184//184 185//185
f 195//195 185//185 186//186
f 180//180 181//181 195//195
f 195//195 181//181 182//182
f 195//195 182//182 183//183
f 177//177 178//178 195//195
f 195//195 178//178 179//179
f 195//195 179//179 180//180
f 174//174 175//175 195//195
f 195//195 175//175 176//176
f 195//195 176//176 177//177
f 171//171 172//172 195//195
f 195//195 172//172 173//173
f 195//195 173//173 174//174
f 168//168 169//169 195//195
f 195//195 169//169 170//170
f 195//195 170//170 171//171
f 165//165 166//166 195//195
f 195//195 166//166 167//167
f 195//195 167//167 168//168
f 162//162 163//163 195//195
f 195//195 163//163 164//164
f 195//195 164//164 165//165
f 159//159 160//160 195//195
f 195//195 160//160 161//161
f 195//195 161//161 162//162
# 386 faces, 0 coords texture

# End of File
