####
#
# OBJ File Generated by Meshlab
#
####
# Object L_ThreePin.obj
#
# Vertices: 199
# Faces: 394
#
####
vn 0.301511 -0.301511 0.904534
v 8.000000 -5.500000 10.000000
vn 0.631557 -0.347201 0.693243
v 10.953833 -6.021921 10.000000
vn 0.670093 -0.265309 0.693243
v 11.622206 -4.601557 10.000000
vn 0.301511 0.301511 0.904534
v 8.000000 -2.500000 10.000000
vn 0.698061 -0.179232 0.693243
v 12.107290 -3.108624 10.000000
vn 0.715021 -0.090328 0.693243
v 12.401434 -1.566666 10.000000
vn -0.301511 -0.301511 0.904534
v 2.000000 -5.500000 10.000000
vn -0.222710 -0.685430 0.693243
v -3.862712 -11.888206 10.000000
vn -0.135047 -0.707938 0.693243
v -2.342266 -12.278590 10.000000
vn -0.045253 -0.719281 0.693243
v -0.784882 -12.475334 10.000000
vn 0.045253 -0.719282 0.693243
v 0.784882 -12.475334 10.000000
vn 0.135047 -0.707938 0.693243
v 2.342267 -12.278590 10.000000
vn 0.222710 -0.685430 0.693243
v 3.862713 -11.888206 10.000000
vn 0.306860 -0.652112 0.693243
v 5.322241 -11.310338 10.000000
vn 0.386172 -0.608510 0.693243
v 6.697836 -10.554099 10.000000
vn 0.459394 -0.555312 0.693243
v 7.967800 -9.631415 10.000000
vn 0.525370 -0.493356 0.693243
v 9.112108 -8.556839 10.000000
vn 0.583062 -0.423619 0.693243
v 10.112713 -7.347315 10.000000
vn -0.306860 -0.652112 0.693243
v -5.322241 -11.310338 10.000000
vn 0.301511 -0.301511 0.904534
v -2.000000 -5.500000 10.000000
vn 0.301511 0.301511 0.904534
v -2.000000 -2.500000 10.000000
vn -0.301511 0.301511 0.904534
v 2.000000 -2.500000 10.000000
vn 0.670093 0.265309 0.693243
v 11.622206 4.601557 10.000000
vn 0.631557 0.347202 0.693243
v 10.953833 6.021921 10.000000
vn 0.720704 0.000000 0.693243
v 12.500000 0.000000 10.000000
vn 0.715021 0.090328 0.693243
v 12.401434 1.566666 10.000000
vn 0.698061 0.179232 0.693243
v 12.107290 3.108624 10.000000
vn -0.301511 -0.301511 0.904534
v -8.000000 -5.500000 10.000000
vn -0.583061 -0.423619 0.693243
v -10.112712 -7.347315 10.000000
vn -0.525370 -0.493356 0.693243
v -9.112107 -8.556839 10.000000
vn 0.583062 0.423619 0.693243
v 10.112713 7.347315 10.000000
vn 0.525370 0.493355 0.693243
v 9.112108 8.556839 10.000000
vn 0.301511 -0.301511 0.904534
v 1.500000 2.000000 10.000000
vn -0.301511 0.301511 0.904534
v -8.000000 -2.500000 10.000000
vn -0.301511 -0.301511 0.904534
v -1.500000 2.000000 10.000000
vn -0.459394 -0.555312 0.693243
v -7.967800 -9.631415 10.000000
vn -0.386172 -0.608510 0.693243
v -6.697835 -10.554099 10.000000
vn -0.720704 -0.000000 0.693243
v -12.500000 0.000000 10.000000
vn -0.715021 -0.090328 0.693243
v -12.401434 -1.566666 10.000000
vn 0.459394 0.555312 0.693243
v 7.967800 9.631416 10.000000
vn 0.386172 0.608510 0.693243
v 6.697836 10.554100 10.000000
vn 0.301511 0.301511 0.904534
v 1.500000 8.000000 10.000000
vn 0.306860 0.652112 0.693243
v 5.322241 11.310339 10.000000
vn 0.222710 0.685430 0.693243
v 3.862713 11.888206 10.000000
vn -0.698061 -0.179232 0.693243
v -12.107289 -3.108624 10.000000
vn -0.670093 -0.265309 0.693243
v -11.622206 -4.601557 10.000000
vn -0.631557 -0.347202 0.693243
v -10.953833 -6.021921 10.000000
vn -0.631557 0.347202 0.693243
v -10.953833 6.021921 10.000000
vn -0.670093 0.265309 0.693243
v -11.622206 4.601557 10.000000
vn -0.698061 0.179232 0.693243
v -12.107289 3.108624 10.000000
vn -0.715021 0.090328 0.693243
v -12.401434 1.566666 10.000000
vn -0.459394 0.555312 0.693243
v -7.967800 9.631416 10.000000
vn -0.525371 0.493355 0.693243
v -9.112107 8.556839 10.000000
vn -0.583061 0.423619 0.693243
v -10.112712 7.347315 10.000000
vn 0.135046 0.707938 0.693243
v 2.342267 12.278591 10.000000
vn 0.045253 0.719281 0.693243
v 0.784882 12.475334 10.000000
vn -0.301511 0.301511 0.904534
v -1.500000 8.000000 10.000000
vn -0.045253 0.719281 0.693243
v -0.784882 12.475334 10.000000
vn -0.135046 0.707938 0.693243
v -2.342266 12.278591 10.000000
vn -0.222710 0.685430 0.693243
v -3.862712 11.888206 10.000000
vn -0.306861 0.652112 0.693243
v -5.322241 11.310339 10.000000
vn -0.386172 0.608510 0.693243
v -6.697835 10.554100 10.000000
vn -0.720704 0.000000 -0.693243
v -12.500000 0.000000 -20.000000
vn -0.715021 0.090328 -0.693243
v -12.401434 1.566666 -20.000000
vn -0.698061 0.179232 -0.693243
v -12.107289 3.108624 -20.000000
vn -0.670093 0.265309 -0.693243
v -11.622206 4.601557 -20.000000
vn -0.631557 0.347202 -0.693243
v -10.953833 6.021921 -20.000000
vn -0.583061 0.423619 -0.693243
v -10.112712 7.347315 -20.000000
vn -0.525370 0.493355 -0.693243
v -9.112107 8.556839 -20.000000
vn -0.459394 0.555312 -0.693243
v -7.967800 9.631416 -20.000000
vn -0.386172 0.608510 -0.693244
v -6.697835 10.554100 -20.000000
vn -0.306861 0.652112 -0.693243
v -5.322241 11.310339 -20.000000
vn -0.222710 0.685430 -0.693243
v -3.862712 11.888206 -20.000000
vn -0.135046 0.707938 -0.693243
v -2.342266 12.278591 -20.000000
vn -0.045253 0.719281 -0.693243
v -0.784882 12.475334 -20.000000
vn 0.045253 0.719281 -0.693243
v 0.784882 12.475334 -20.000000
vn 0.135046 0.707938 -0.693243
v 2.342267 12.278591 -20.000000
vn 0.222710 0.685430 -0.693244
v 3.862713 11.888206 -20.000000
vn 0.306860 0.652112 -0.693243
v 5.322241 11.310339 -20.000000
vn 0.386172 0.608510 -0.693243
v 6.697836 10.554100 -20.000000
vn 0.459394 0.555312 -0.693243
v 7.967800 9.631416 -20.000000
vn 0.525371 0.493355 -0.693243
v 9.112108 8.556839 -20.000000
vn 0.583062 0.423619 -0.693243
v 10.112713 7.347315 -20.000000
vn 0.631557 0.347201 -0.693244
v 10.953833 6.021921 -20.000000
vn 0.670093 0.265309 -0.693244
v 11.622206 4.601557 -20.000000
vn 0.698062 0.179232 -0.693243
v 12.107290 3.108624 -20.000000
vn 0.715021 0.090328 -0.693243
v 12.401434 1.566666 -20.000000
vn 0.720703 -0.000000 -0.693244
v 12.500000 0.000000 -20.000000
vn 0.715021 -0.090328 -0.693243
v 12.401434 -1.566666 -20.000000
vn 0.698062 -0.179232 -0.693243
v 12.107290 -3.108624 -20.000000
vn 0.670093 -0.265309 -0.693243
v 11.622206 -4.601557 -20.000000
vn 0.631557 -0.347201 -0.693243
v 10.953833 -6.021921 -20.000000
vn 0.583062 -0.423619 -0.693243
v 10.112713 -7.347315 -20.000000
vn 0.525370 -0.493356 -0.693243
v 9.112108 -8.556839 -20.000000
vn 0.459394 -0.555312 -0.693243
v 7.967800 -9.631415 -20.000000
vn 0.386172 -0.608510 -0.693243
v 6.697836 -10.554099 -20.000000
vn 0.306860 -0.652112 -0.693243
v 5.322241 -11.310338 -20.000000
vn 0.222710 -0.685430 -0.693243
v 3.862713 -11.888206 -20.000000
vn 0.135046 -0.707938 -0.693243
v 2.342267 -12.278590 -20.000000
vn 0.045253 -0.719282 -0.693243
v 0.784882 -12.475334 -20.000000
vn -0.045253 -0.719282 -0.693243
v -0.784882 -12.475334 -20.000000
vn -0.135047 -0.707938 -0.693243
v -2.342266 -12.278590 -20.000000
vn -0.222710 -0.685430 -0.693243
v -3.862712 -11.888206 -20.000000
vn -0.306861 -0.652113 -0.693243
v -5.322241 -11.310338 -20.000000
vn -0.386172 -0.608510 -0.693244
v -6.697835 -10.554099 -20.000000
vn -0.459394 -0.555312 -0.693243
v -7.967800 -9.631415 -20.000000
vn -0.525370 -0.493355 -0.693244
v -9.112107 -8.556839 -20.000000
vn -0.583061 -0.423619 -0.693243
v -10.112712 -7.347315 -20.000000
vn -0.631557 -0.347202 -0.693244
v -10.953833 -6.021921 -20.000000
vn -0.670093 -0.265309 -0.693243
v -11.622206 -4.601557 -20.000000
vn -0.698061 -0.179232 -0.693243
v -12.107289 -3.108624 -20.000000
vn -0.715021 -0.090328 -0.693243
v -12.401434 -1.566666 -20.000000
vn 0.647712 0.228851 -0.726703
v -3.064351 -1.082705 -20.000000
vn 0.677071 0.116096 -0.726703
v -3.203252 -0.549253 -20.000000
vn 0.686952 0.000000 -0.726703
v -3.250000 0.000000 -20.000000
vn 0.677071 -0.116096 -0.726703
v -3.203252 0.549253 -20.000000
vn 0.453852 0.515676 -0.726703
v -2.147193 -2.439685 -20.000000
vn 0.534474 0.431557 -0.726703
v -2.528616 -2.041715 -20.000000
vn 0.599719 0.335023 -0.726703
v -2.837296 -1.585009 -20.000000
vn 0.144726 0.671534 -0.726703
v -0.684708 -3.177054 -20.000000
vn 0.256135 0.637415 -0.726703
v -1.211783 -3.015639 -20.000000
vn 0.360174 0.584960 -0.726703
v -1.703999 -2.767469 -20.000000
vn -0.625970 0.282956 -0.726703
v 2.961493 -1.338679 -20.000000
vn -0.569147 0.384676 -0.726703
v 2.692657 -1.819918 -20.000000
vn -0.495949 0.475329 -0.726703
v 2.346357 -2.248801 -20.000000
vn -0.408485 0.552308 -0.726703
v 1.932558 -2.612990 -20.000000
vn -0.087255 0.681388 -0.726703
v 0.412808 -3.223677 -20.000000
vn 0.029155 0.686333 -0.726702
v -0.137934 -3.247071 -20.000000
vn -0.309269 0.613397 -0.726703
v 1.463162 -2.902009 -20.000000
vn -0.201155 0.656841 -0.726703
v 0.951674 -3.107542 -20.000000
vn -0.569146 -0.384676 -0.726703
v 2.692657 1.819919 -20.000000
vn -0.625971 -0.282956 -0.726703
v 2.961493 1.338679 -20.000000
vn -0.664786 -0.173097 -0.726703
v 3.145132 0.818929 -20.000000
vn -0.684477 -0.058258 -0.726703
v 3.238292 0.275620 -20.000000
vn 0.534473 -0.431557 -0.726703
v -2.528616 2.041716 -20.000000
vn 0.453852 -0.515676 -0.726703
v -2.147193 2.439685 -20.000000
vn 0.360174 -0.584960 -0.726703
v -1.703999 2.767470 -20.000000
vn 0.256134 -0.637416 -0.726702
v -1.211783 3.015639 -20.000000
vn 0.647712 -0.228851 -0.726703
v -3.064351 1.082705 -20.000000
vn 0.599719 -0.335023 -0.726703
v -2.837296 1.585009 -20.000000
vn -0.684477 0.058258 -0.726703
v 3.238292 -0.275620 -20.000000
vn -0.664786 0.173097 -0.726703
v 3.145132 -0.818929 -20.000000
vn -0.309269 -0.613397 -0.726703
v 1.463162 2.902009 -20.000000
vn -0.408485 -0.552307 -0.726703
v 1.932558 2.612990 -20.000000
vn -0.495949 -0.475329 -0.726703
v 2.346357 2.248801 -20.000000
vn 0.029155 -0.686333 -0.726703
v -0.137934 3.247072 -20.000000
vn -0.087255 -0.681388 -0.726703
v 0.412808 3.223677 -20.000000
vn -0.201155 -0.656841 -0.726703
v 0.951674 3.107542 -20.000000
vn 0.144727 -0.671534 -0.726702
v -0.684708 3.177054 -20.000000
vn 0.577350 0.577350 0.577350
v 1.500000 8.000000 20.000000
vn 0.577350 -0.577350 0.577350
v 1.500000 2.000000 20.000000
vn -0.577350 0.577350 0.577350
v -1.500000 8.000000 20.000000
vn -0.577350 -0.577350 0.577350
v -1.500000 2.000000 20.000000
vn -0.577350 -0.577350 0.577350
v -8.000000 -5.500000 20.000000
vn -0.577350 0.577350 0.577350
v -8.000000 -2.500000 20.000000
vn 0.577350 -0.577350 0.577350
v -2.000000 -5.500000 20.000000
vn 0.577350 0.577350 0.577350
v -2.000000 -2.500000 20.000000
vn 0.577350 0.577350 0.577350
v 8.000000 -2.500000 20.000000
vn 0.577350 -0.577350 0.577350
v 8.000000 -5.500000 20.000000
vn -0.577350 0.577350 0.577350
v 2.000000 -2.500000 20.000000
vn -0.577350 -0.577350 0.577350
v 2.000000 -5.500000 20.000000
vn 0.725229 -0.000000 -0.688508
v -3.250000 0.000000 -10.000000
vn 0.714797 -0.122565 -0.688508
v -3.203252 0.549253 -10.000000
vn 0.683802 -0.241603 -0.688508
v -3.064351 1.082705 -10.000000
vn 0.633135 -0.353690 -0.688508
v -2.837296 1.585009 -10.000000
vn 0.564254 -0.455603 -0.688508
v -2.528616 2.041716 -10.000000
vn 0.479140 -0.544409 -0.688508
v -2.147193 2.439685 -10.000000
vn 0.380243 -0.617554 -0.688508
v -1.703999 2.767470 -10.000000
vn 0.270406 -0.672932 -0.688508
v -1.211783 3.015639 -10.000000
vn 0.152791 -0.708951 -0.688508
v -0.684708 3.177054 -10.000000
vn 0.030780 -0.724576 -0.688508
v -0.137934 3.247072 -10.000000
vn -0.092117 -0.719355 -0.688508
v 0.412808 3.223677 -10.000000
vn -0.212364 -0.693440 -0.688508
v 0.951674 3.107542 -10.000000
vn -0.326501 -0.647576 -0.688508
v 1.463162 2.902009 -10.000000
vn -0.431245 -0.583082 -0.688508
v 1.932558 2.612990 -10.000000
vn -0.523583 -0.501814 -0.688508
v 2.346357 2.248801 -10.000000
vn -0.600859 -0.406110 -0.688508
v 2.692657 1.819919 -10.000000
vn -0.660849 -0.298723 -0.688508
v 2.961493 1.338679 -10.000000
vn -0.701828 -0.182742 -0.688508
v 3.145132 0.818929 -10.000000
vn -0.722616 -0.061504 -0.688508
v 3.238292 0.275620 -10.000000
vn -0.722616 0.061504 -0.688508
v 3.238292 -0.275620 -10.000000
vn -0.701828 0.182742 -0.688508
v 3.145132 -0.818929 -10.000000
vn -0.660849 0.298723 -0.688508
v 2.961493 -1.338679 -10.000000
vn -0.600859 0.406110 -0.688508
v 2.692657 -1.819918 -10.000000
vn -0.523584 0.501814 -0.688508
v 2.346357 -2.248801 -10.000000
vn -0.431245 0.583082 -0.688508
v 1.932558 -2.612990 -10.000000
vn -0.326501 0.647576 -0.688508
v 1.463162 -2.902009 -10.000000
vn -0.212364 0.693440 -0.688508
v 0.951674 -3.107542 -10.000000
vn -0.092117 0.719355 -0.688508
v 0.412808 -3.223677 -10.000000
vn 0.030780 0.724575 -0.688508
v -0.137934 -3.247071 -10.000000
vn 0.152791 0.708951 -0.688508
v -0.684708 -3.177054 -10.000000
vn 0.270406 0.672932 -0.688508
v -1.211783 -3.015639 -10.000000
vn 0.380243 0.617554 -0.688508
v -1.703999 -2.767469 -10.000000
vn 0.479141 0.544409 -0.688508
v -2.147193 -2.439685 -10.000000
vn 0.564254 0.455603 -0.688508
v -2.528616 -2.041715 -10.000000
vn 0.633135 0.353691 -0.688508
v -2.837296 -1.585009 -10.000000
vn 0.683802 0.241603 -0.688508
v -3.064351 -1.082705 -10.000000
vn 0.714797 0.122565 -0.688508
v -3.203252 -0.549253 -10.000000
vn 0.000000 0.000000 -1.000000
v 0.000000 0.000000 -10.000000
# 199 vertices, 0 vertices normals

f 1//1 2//2 3//3
f 1//1 3//3 4//4
f 4//4 3//3 5//5
f 4//4 5//5 6//6
f 7//7 8//8 9//9
f 9//9 10//10 7//7
f 7//7 10//10 11//11
f 7//7 11//11 12//12
f 12//12 13//13 7//7
f 7//7 13//13 14//14
f 7//7 14//14 15//15
f 15//15 16//16 7//7
f 7//7 16//16 17//17
f 7//7 17//17 1//1
f 1//1 17//17 18//18
f 1//1 18//18 2//2
f 19//19 8//8 20//20
f 20//20 8//8 7//7
f 20//20 7//7 21//21
f 21//21 7//7 22//22
f 23//23 24//24 22//22
f 6//6 25//25 4//4
f 4//4 25//25 26//26
f 4//4 26//26 22//22
f 22//22 26//26 27//27
f 22//22 27//27 23//23
f 28//28 29//29 20//20
f 20//20 29//29 30//30
f 24//24 31//31 22//22
f 22//22 31//31 32//32
f 22//22 32//32 21//21
f 21//21 32//32 33//33
f 21//21 33//33 34//34
f 34//34 33//33 35//35
f 30//30 36//36 20//20
f 20//20 36//36 37//37
f 20//20 37//37 19//19
f 34//34 38//38 39//39
f 32//32 40//40 33//33
f 33//33 40//40 41//41
f 33//33 41//41 42//42
f 42//42 41//41 43//43
f 42//42 43//43 44//44
f 39//39 45//45 34//34
f 34//34 45//45 46//46
f 34//34 46//46 28//28
f 28//28 46//46 47//47
f 28//28 47//47 29//29
f 48//48 49//49 35//35
f 35//35 49//49 50//50
f 35//35 50//50 34//34
f 34//34 50//50 51//51
f 34//34 51//51 38//38
f 52//52 53//53 35//35
f 35//35 53//53 54//54
f 35//35 54//54 48//48
f 44//44 55//55 42//42
f 42//42 55//55 56//56
f 42//42 56//56 57//57
f 57//57 56//56 58//58
f 57//57 58//58 59//59
f 59//59 60//60 57//57
f 57//57 60//60 61//61
f 57//57 61//61 35//35
f 35//35 61//61 62//62
f 35//35 62//62 52//52
f 63//63 51//51 64//64
f 64//64 51//51 50//50
f 64//64 50//50 65//65
f 65//65 50//50 49//49
f 65//65 49//49 66//66
f 66//66 49//49 48//48
f 66//66 48//48 67//67
f 67//67 48//48 54//54
f 67//67 54//54 68//68
f 68//68 54//54 53//53
f 68//68 53//53 69//69
f 69//69 53//53 52//52
f 69//69 52//52 70//70
f 70//70 52//52 62//62
f 70//70 62//62 71//71
f 71//71 62//62 61//61
f 71//71 61//61 72//72
f 72//72 61//61 60//60
f 72//72 60//60 73//73
f 73//73 60//60 59//59
f 73//73 59//59 74//74
f 74//74 59//59 58//58
f 74//74 58//58 75//75
f 75//75 58//58 56//56
f 75//75 56//56 76//76
f 76//76 56//56 55//55
f 76//76 55//55 77//77
f 77//77 55//55 44//44
f 77//77 44//44 78//78
f 78//78 44//44 43//43
f 78//78 43//43 79//79
f 79//79 43//43 41//41
f 79//79 41//41 80//80
f 80//80 41//41 40//40
f 80//80 40//40 81//81
f 81//81 40//40 32//32
f 81//81 32//32 82//82
f 82//82 32//32 31//31
f 82//82 31//31 83//83
f 83//83 31//31 24//24
f 83//83 24//24 84//84
f 84//84 24//24 23//23
f 84//84 23//23 85//85
f 85//85 23//23 27//27
f 85//85 27//27 86//86
f 86//86 27//27 26//26
f 86//86 26//26 87//87
f 87//87 26//26 25//25
f 87//87 25//25 88//88
f 88//88 25//25 6//6
f 88//88 6//6 89//89
f 89//89 6//6 5//5
f 89//89 5//5 90//90
f 90//90 5//5 3//3
f 90//90 3//3 91//91
f 91//91 3//3 2//2
f 91//91 2//2 92//92
f 92//92 2//2 18//18
f 92//92 18//18 93//93
f 93//93 18//18 17//17
f 93//93 17//17 94//94
f 94//94 17//17 16//16
f 94//94 16//16 95//95
f 95//95 16//16 15//15
f 95//95 15//15 96//96
f 96//96 15//15 14//14
f 96//96 14//14 97//97
f 97//97 14//14 13//13
f 97//97 13//13 98//98
f 98//98 13//13 12//12
f 98//98 12//12 99//99
f 99//99 12//12 11//11
f 99//99 11//11 100//100
f 100//100 11//11 10//10
f 100//100 10//10 101//101
f 101//101 10//10 9//9
f 101//101 9//9 102//102
f 102//102 9//9 8//8
f 102//102 8//8 103//103
f 103//103 8//8 19//19
f 103//103 19//19 104//104
f 104//104 19//19 37//37
f 104//104 37//37 105//105
f 105//105 37//37 36//36
f 105//105 36//36 106//106
f 106//106 36//36 30//30
f 106//106 30//30 107//107
f 107//107 30//30 29//29
f 107//107 29//29 108//108
f 108//108 29//29 47//47
f 108//108 47//47 109//109
f 109//109 47//47 46//46
f 109//109 46//46 110//110
f 110//110 46//46 45//45
f 110//110 45//45 111//111
f 111//111 45//45 39//39
f 111//111 39//39 112//112
f 112//112 39//39 38//38
f 112//112 38//38 63//63
f 63//63 38//38 51//51
f 113//113 111//111 114//114
f 114//114 111//111 112//112
f 114//114 112//112 115//115
f 115//115 112//112 63//63
f 115//115 63//63 116//116
f 117//117 107//107 118//118
f 118//118 107//107 108//108
f 118//118 108//108 119//119
f 119//119 108//108 109//109
f 119//119 109//109 113//113
f 113//113 109//109 110//110
f 113//113 110//110 111//111
f 120//120 103//103 121//121
f 121//121 103//103 104//104
f 121//121 104//104 122//122
f 122//122 104//104 105//105
f 122//122 105//105 117//117
f 117//117 105//105 106//106
f 117//117 106//106 107//107
f 123//123 92//92 124//124
f 124//124 92//92 93//93
f 124//124 93//93 125//125
f 125//125 93//93 94//94
f 125//125 94//94 126//126
f 127//127 100//100 128//128
f 128//128 100//100 101//101
f 128//128 101//101 120//120
f 120//120 101//101 102//102
f 120//120 102//102 103//103
f 94//94 95//95 126//126
f 126//126 95//95 96//96
f 126//126 96//96 129//129
f 129//129 96//96 97//97
f 129//129 97//97 130//130
f 130//130 97//97 98//98
f 130//130 98//98 127//127
f 127//127 98//98 99//99
f 127//127 99//99 100//100
f 131//131 84//84 132//132
f 132//132 84//84 85//85
f 132//132 85//85 133//133
f 133//133 85//85 86//86
f 133//133 86//86 134//134
f 135//135 69//69 136//136
f 136//136 69//69 70//70
f 136//136 70//70 137//137
f 137//137 70//70 71//71
f 137//137 71//71 138//138
f 63//63 64//64 116//116
f 116//116 64//64 65//65
f 116//116 65//65 139//139
f 139//139 65//65 66//66
f 139//139 66//66 140//140
f 140//140 66//66 67//67
f 140//140 67//67 135//135
f 135//135 67//67 68//68
f 135//135 68//68 69//69
f 86//86 87//87 134//134
f 134//134 87//87 88//88
f 134//134 88//88 141//141
f 141//141 88//88 89//89
f 141//141 89//89 142//142
f 142//142 89//89 90//90
f 142//142 90//90 123//123
f 123//123 90//90 91//91
f 123//123 91//91 92//92
f 143//143 80//80 144//144
f 144//144 80//80 81//81
f 144//144 81//81 145//145
f 145//145 81//81 82//82
f 145//145 82//82 131//131
f 131//131 82//82 83//83
f 131//131 83//83 84//84
f 146//146 76//76 147//147
f 147//147 76//76 77//77
f 147//147 77//77 148//148
f 148//148 77//77 78//78
f 148//148 78//78 143//143
f 143//143 78//78 79//79
f 143//143 79//79 80//80
f 71//71 72//72 138//138
f 138//138 72//72 73//73
f 138//138 73//73 149//149
f 149//149 73//73 74//74
f 149//149 74//74 146//146
f 146//146 74//74 75//75
f 146//146 75//75 76//76
f 150//150 151//151 42//42
f 42//42 151//151 33//33
f 152//152 150//150 57//57
f 57//57 150//150 42//42
f 153//153 152//152 35//35
f 35//35 152//152 57//57
f 151//151 153//153 33//33
f 33//33 153//153 35//35
f 152//152 153//153 150//150
f 150//150 153//153 151//151
f 154//154 155//155 28//28
f 28//28 155//155 34//34
f 156//156 154//154 20//20
f 20//20 154//154 28//28
f 157//157 156//156 21//21
f 21//21 156//156 20//20
f 155//155 157//157 34//34
f 34//34 157//157 21//21
f 156//156 157//157 154//154
f 154//154 157//157 155//155
f 158//158 159//159 4//4
f 4//4 159//159 1//1
f 160//160 158//158 22//22
f 22//22 158//158 4//4
f 161//161 160//160 7//7
f 7//7 160//160 22//22
f 159//159 161//161 1//1
f 1//1 161//161 7//7
f 160//160 161//161 158//158
f 158//158 161//161 159//159
f 162//162 115//115 163//163
f 163//163 115//115 116//116
f 163//163 116//116 164//164
f 164//164 116//116 139//139
f 164//164 139//139 165//165
f 165//165 139//139 140//140
f 165//165 140//140 166//166
f 166//166 140//140 135//135
f 166//166 135//135 167//167
f 167//167 135//135 136//136
f 167//167 136//136 168//168
f 168//168 136//136 137//137
f 168//168 137//137 169//169
f 169//169 137//137 138//138
f 169//169 138//138 170//170
f 170//170 138//138 149//149
f 170//170 149//149 171//171
f 171//171 149//149 146//146
f 171//171 146//146 172//172
f 172//172 146//146 147//147
f 172//172 147//147 173//173
f 173//173 147//147 148//148
f 173//173 148//148 174//174
f 174//174 148//148 143//143
f 174//174 143//143 175//175
f 175//175 143//143 144//144
f 175//175 144//144 176//176
f 176//176 144//144 145//145
f 176//176 145//145 177//177
f 177//177 145//145 131//131
f 177//177 131//131 178//178
f 178//178 131//131 132//132
f 178//178 132//132 179//179
f 179//179 132//132 133//133
f 179//179 133//133 180//180
f 180//180 133//133 134//134
f 180//180 134//134 181//181
f 181//181 134//134 141//141
f 181//181 141//141 182//182
f 182//182 141//141 142//142
f 182//182 142//142 183//183
f 183//183 142//142 123//123
f 183//183 123//123 184//184
f 184//184 123//123 124//124
f 184//184 124//124 185//185
f 185//185 124//124 125//125
f 185//185 125//125 186//186
f 186//186 125//125 126//126
f 186//186 126//126 187//187
f 187//187 126//126 129//129
f 187//187 129//129 188//188
f 188//188 129//129 130//130
f 188//188 130//130 189//189
f 189//189 130//130 127//127
f 189//189 127//127 190//190
f 190//190 127//127 128//128
f 190//190 128//128 191//191
f 191//191 128//128 120//120
f 191//191 120//120 192//192
f 192//192 120//120 121//121
f 192//192 121//121 193//193
f 193//193 121//121 122//122
f 193//193 122//122 194//194
f 194//194 122//122 117//117
f 194//194 117//117 195//195
f 195//195 117//117 118//118
f 195//195 118//118 196//196
f 196//196 118//118 119//119
f 196//196 119//119 197//197
f 197//197 119//119 113//113
f 197//197 113//113 198//198
f 198//198 113//113 114//114
f 198//198 114//114 162//162
f 162//162 114//114 115//115
f 162//162 163//163 199//199
f 196//196 197//197 199//199
f 199//199 197//197 198//198
f 199//199 198//198 162//162
f 193//193 194//194 199//199
f 199//199 194//194 195//195
f 199//199 195//195 196//196
f 190//190 191//191 199//199
f 199//199 191//191 192//192
f 199//199 192//192 193//193
f 187//187 188//188 199//199
f 199//199 188//188 189//189
f 199//199 189//189 190//190
f 184//184 185//185 199//199
f 199//199 185//185 186//186
f 199//199 186//186 187//187
f 181//181 182//182 199//199
f 199//199 182//182 183//183
f 199//199 183//183 184//184
f 178//178 179//179 199//199
f 199//199 179//179 180//180
f 199//199 180//180 181//181
f 175//175 176//176 199//199
f 199//199 176//176 177//177
f 199//199 177//177 178//178
f 172//172 173//173 199//199
f 199//199 173//173 174//174
f 199//199 174//174 175//175
f 169//169 170//170 199//199
f 199//199 170//170 171//171
f 199//199 171//171 172//172
f 166//166 167//167 199//199
f 199//199 167//167 168//168
f 199//199 168//168 169//169
f 163//163 164//164 199//199
f 199//199 164//164 165//165
f 199//199 165//165 166//166
# 394 faces, 0 coords texture

# End of File
