####
#
# OBJ File Generated by Meshlab
#
####
# Object ShaftandKeyPeg.obj
#
# Vertices: 185
# Faces: 290
#
####
vn -0.429590 0.287677 0.855976
v -1.500000 4.010464 22.500000
vn -0.577350 0.577350 0.577350
v -1.500000 5.740768 22.500000
vn -1.000000 0.000000 0.000000
v -1.500000 4.010464 -22.500000
vn -0.707107 0.707107 0.000000
v -1.500000 5.740768 -22.500000
vn -0.380798 0.924658 0.000000
v -1.500000 4.010464 -22.500000
vn -0.458784 0.888548 0.000000
v -2.293919 3.683507 -22.500000
vn -0.332821 0.644591 0.688283
v -2.293919 3.683507 22.500000
vn -0.604039 0.796955 0.000000
v -3.020195 3.225543 -22.500000
vn -0.438196 0.578145 0.688282
v -3.020195 3.225543 22.500000
vn -0.731482 0.681861 0.000000
v -3.657409 2.650073 -22.500000
vn -0.530648 0.494651 0.688282
v -3.657409 2.650073 22.500000
vn -0.837355 0.546660 0.000000
v -4.186773 1.974068 -22.500000
vn -0.607453 0.396571 0.688282
v -4.186773 1.974068 22.500000
vn -0.918535 0.395339 0.000000
v -4.592676 1.217463 -22.500000
vn -0.666345 0.286796 0.688282
v -4.592676 1.217463 22.500000
vn -0.972630 0.232360 0.000000
v -4.863149 0.402569 -22.500000
vn -0.705587 0.168564 0.688282
v -4.863149 0.402569 22.500000
vn -0.998043 0.062529 0.000000
v -4.990215 -0.446585 -22.500000
vn -0.724023 0.045362 0.688282
v -4.990215 -0.446585 22.500000
vn -0.994026 -0.109145 0.000000
v -4.970129 -1.304958 -22.500000
vn -0.721109 -0.079178 0.688282
v -4.970129 -1.304958 22.500000
vn -0.960696 -0.277601 0.000000
v -4.803482 -2.147238 -22.500000
vn -0.696930 -0.201384 0.688282
v -4.803482 -2.147238 22.500000
vn -0.899038 -0.437871 0.000000
v -4.495188 -2.948589 -22.500000
vn -0.652200 -0.317651 0.688282
v -4.495188 -2.948589 22.500000
vn -0.810868 -0.585230 0.000000
v -4.054339 -3.685380 -22.500000
vn -0.588238 -0.424551 0.688282
v -4.054339 -3.685380 22.500000
vn -0.698787 -0.715330 0.000000
v -3.493934 -4.335882 -22.500000
vn -0.506930 -0.518931 0.688282
v -3.493934 -4.335882 22.500000
vn -0.566100 -0.824337 0.000000
v -2.830498 -4.880916 -22.500000
vn -0.410673 -0.598009 0.688282
v -2.830498 -4.880916 22.500000
vn -0.416719 -0.909035 0.000000
v -2.083597 -5.304408 -22.500000
vn -0.302306 -0.659453 0.688282
v -2.083597 -5.304408 22.500000
vn -0.255051 -0.966928 0.000000
v -1.275253 -5.593871 -22.500000
vn -0.185025 -0.701451 0.688282
v -1.275253 -5.593871 22.500000
vn -0.085861 -0.996307 0.000000
v -0.429304 -5.740767 -22.500000
vn -0.062287 -0.722764 0.688282
v -0.429304 -5.740767 22.500000
vn 0.085861 -0.996307 0.000000
v 0.429304 -5.740767 -22.500000
vn 0.062287 -0.722764 0.688282
v 0.429304 -5.740767 22.500000
vn 0.255051 -0.966928 0.000000
v 1.275253 -5.593871 -22.500000
vn 0.185025 -0.701451 0.688282
v 1.275253 -5.593871 22.500000
vn 0.416719 -0.909035 0.000000
v 2.083596 -5.304408 -22.500000
vn 0.302306 -0.659453 0.688283
v 2.083596 -5.304408 22.500000
vn 0.566100 -0.824337 0.000000
v 2.830498 -4.880916 -22.500000
vn 0.410673 -0.598009 0.688283
v 2.830498 -4.880916 22.500000
vn 0.698787 -0.715330 0.000000
v 3.493934 -4.335882 -22.500000
vn 0.506930 -0.518931 0.688282
v 3.493934 -4.335882 22.500000
vn 0.810868 -0.585229 0.000000
v 4.054338 -3.685380 -22.500000
vn 0.588238 -0.424550 0.688282
v 4.054338 -3.685380 22.500000
vn 0.899038 -0.437872 0.000000
v 4.495188 -2.948589 -22.500000
vn 0.652200 -0.317651 0.688283
v 4.495188 -2.948589 22.500000
vn 0.960696 -0.277601 0.000000
v 4.803482 -2.147238 -22.500000
vn 0.696930 -0.201384 0.688282
v 4.803482 -2.147238 22.500000
vn 0.994026 -0.109145 0.000000
v 4.970129 -1.304958 -22.500000
vn 0.721109 -0.079178 0.688282
v 4.970129 -1.304958 22.500000
vn 0.998043 0.062530 0.000000
v 4.990215 -0.446585 -22.500000
vn 0.724023 0.045362 0.688282
v 4.990215 -0.446585 22.500000
vn 0.972630 0.232360 0.000000
v 4.863149 0.402569 -22.500000
vn 0.705587 0.168564 0.688282
v 4.863149 0.402569 22.500000
vn 0.918535 0.395339 0.000000
v 4.592676 1.217463 -22.500000
vn 0.666345 0.286796 0.688282
v 4.592676 1.217463 22.500000
vn 0.837355 0.546660 0.000000
v 4.186773 1.974068 -22.500000
vn 0.607453 0.396571 0.688282
v 4.186773 1.974068 22.500000
vn 0.731482 0.681861 0.000000
v 3.657409 2.650073 -22.500000
vn 0.530648 0.494651 0.688283
v 3.657409 2.650073 22.500000
vn 0.604039 0.796955 0.000000
v 3.020194 3.225543 -22.500000
vn 0.438196 0.578145 0.688282
v 3.020194 3.225543 22.500000
vn 0.458784 0.888548 0.000000
v 2.293919 3.683507 -22.500000
vn 0.332821 0.644591 0.688282
v 2.293919 3.683507 22.500000
vn 0.380798 0.924658 0.000000
v 1.500000 4.010464 -22.500000
vn 0.429590 0.287677 0.855976
v 1.500000 4.010464 22.500000
vn 0.577350 0.577350 0.577350
v 1.500000 5.740768 22.500000
vn 0.707107 0.707107 0.000000
v 1.500000 5.740768 -22.500000
vn 1.000000 0.000000 0.000000
v 1.500000 4.010464 -22.500000
vn -0.029155 -0.686333 0.726703
v 0.137934 2.487839 22.500000
vn 0.087255 -0.681388 0.726703
v -0.412808 2.464445 22.500000
vn 0.201155 -0.656841 0.726703
v -0.951674 2.348310 22.500000
vn 0.625970 -0.282956 0.726703
v -2.961493 0.579447 22.500000
vn 0.569146 -0.384676 0.726703
v -2.692657 1.060686 22.500000
vn 0.495949 -0.475329 0.726703
v -2.346357 1.489569 22.500000
vn 0.408485 -0.552308 0.726703
v -1.932558 1.853758 22.500000
vn 0.309269 -0.613397 0.726703
v -1.463162 2.142777 22.500000
vn -0.144726 -0.671534 0.726703
v 0.684708 2.417822 22.500000
vn -0.256135 -0.637415 0.726703
v 1.211783 2.256407 22.500000
vn -0.360174 -0.584960 0.726703
v 1.703999 2.008237 22.500000
vn -0.453852 -0.515676 0.726703
v 2.147193 1.680453 22.500000
vn -0.534474 -0.431557 0.726703
v 2.528616 1.282483 22.500000
vn -0.599719 -0.335023 0.726703
v 2.837296 0.825777 22.500000
vn -0.647712 -0.228851 0.726702
v 3.064351 0.323472 22.500000
vn -0.677071 -0.116096 0.726703
v 3.203252 -0.209980 22.500000
vn -0.686952 -0.000000 0.726703
v 3.250000 -0.759232 22.500000
vn -0.677071 0.116096 0.726703
v 3.203252 -1.308485 22.500000
vn -0.647712 0.228851 0.726702
v 3.064351 -1.841936 22.500000
vn -0.599719 0.335023 0.726703
v 2.837296 -2.344241 22.500000
vn -0.534474 0.431557 0.726703
v 2.528616 -2.800947 22.500000
vn -0.453852 0.515676 0.726703
v 2.147193 -3.198917 22.500000
vn -0.360174 0.584960 0.726703
v 1.703999 -3.526702 22.500000
vn -0.256134 0.637415 0.726703
v 1.211783 -3.774871 22.500000
vn -0.144727 0.671534 0.726703
v 0.684708 -3.936286 22.500000
vn -0.029155 0.686333 0.726703
v 0.137934 -4.006304 22.500000
vn 0.087255 0.681388 0.726703
v -0.412808 -3.982909 22.500000
vn 0.201155 0.656841 0.726703
v -0.951674 -3.866774 22.500000
vn 0.309269 0.613397 0.726703
v -1.463162 -3.661241 22.500000
vn 0.408485 0.552308 0.726703
v -1.932558 -3.372223 22.500000
vn 0.495949 0.475329 0.726703
v -2.346357 -3.008034 22.500000
vn 0.569146 0.384676 0.726703
v -2.692657 -2.579150 22.500000
vn 0.625970 0.282956 0.726703
v -2.961493 -2.097911 22.500000
vn 0.664786 0.173097 0.726703
v -3.145132 -1.578161 22.500000
vn 0.684477 0.058258 0.726703
v -3.238292 -1.034852 22.500000
vn 0.684477 -0.058258 0.726703
v -3.238292 -0.483613 22.500000
vn 0.664786 -0.173097 0.726703
v -3.145132 0.059697 22.500000
vn 0.000000 0.000000 -1.000000
v 2.830498 -4.880916 -22.500000
vn 0.000000 0.000000 -1.000000
v 2.083596 -5.304408 -22.500000
vn 0.000000 0.000000 -1.000000
v 3.020194 3.225543 -22.500000
vn 0.000000 0.000000 -1.000000
v 2.293919 3.683507 -22.500000
vn 0.000000 0.000000 -1.000000
v -4.970129 -1.304958 -22.500000
vn 0.000000 0.000000 -1.000000
v -4.990215 -0.446585 -22.500000
vn 0.000000 0.000000 -1.000000
v 1.500000 4.010464 -22.500000
vn 0.000000 0.000000 -1.000000
v -4.863149 0.402569 -22.500000
vn 0.000000 0.000000 -1.000000
v -4.592676 1.217463 -22.500000
vn 0.000000 0.000000 -1.000000
v -1.500000 5.740768 -22.500000
vn 0.000000 0.000000 -1.000000
v 1.500000 5.740768 -22.500000
vn 0.000000 0.000000 -1.000000
v -1.500000 4.010464 -22.500000
vn 0.000000 0.000000 -1.000000
v -2.293919 3.683507 -22.500000
vn 0.000000 0.000000 -1.000000
v -3.020195 3.225543 -22.500000
vn 0.000000 0.000000 -1.000000
v -4.186773 1.974068 -22.500000
vn 0.000000 0.000000 -1.000000
v -3.657409 2.650073 -22.500000
vn 0.000000 0.000000 -1.000000
v 4.186773 1.974068 -22.500000
vn 0.000000 0.000000 -1.000000
v 4.592676 1.217463 -22.500000
vn 0.000000 0.000000 -1.000000
v 4.863149 0.402569 -22.500000
vn 0.000000 0.000000 -1.000000
v 0.429304 -5.740767 -22.500000
vn 0.000000 0.000000 -1.000000
v -0.429304 -5.740767 -22.500000
vn 0.000000 0.000000 -1.000000
v -1.275253 -5.593871 -22.500000
vn 0.000000 0.000000 -1.000000
v -2.083597 -5.304408 -22.500000
vn 0.000000 0.000000 -1.000000
v -2.830498 -4.880916 -22.500000
vn 0.000000 0.000000 -1.000000
v -3.493934 -4.335882 -22.500000
vn 0.000000 0.000000 -1.000000
v -4.054339 -3.685380 -22.500000
vn 0.000000 0.000000 -1.000000
v 4.990215 -0.446585 -22.500000
vn 0.000000 0.000000 -1.000000
v 4.970129 -1.304958 -22.500000
vn 0.000000 0.000000 -1.000000
v 3.657409 2.650073 -22.500000
vn 0.000000 0.000000 -1.000000
v 4.803482 -2.147238 -22.500000
vn 0.000000 0.000000 -1.000000
v 4.495188 -2.948589 -22.500000
vn 0.000000 0.000000 -1.000000
v -4.495188 -2.948589 -22.500000
vn 0.000000 0.000000 -1.000000
v -4.803482 -2.147238 -22.500000
vn 0.000000 0.000000 -1.000000
v 4.054338 -3.685380 -22.500000
vn 0.000000 0.000000 -1.000000
v 3.493934 -4.335882 -22.500000
vn 0.000000 0.000000 -1.000000
v 1.275253 -5.593871 -22.500000
vn -0.725229 -0.000000 0.688508
v 3.250000 -0.759232 12.500000
vn -0.714797 -0.122565 0.688508
v 3.203252 -0.209980 12.500000
vn -0.683802 -0.241603 0.688508
v 3.064351 0.323472 12.500000
vn -0.633135 -0.353690 0.688508
v 2.837296 0.825777 12.500000
vn -0.564254 -0.455603 0.688508
v 2.528616 1.282483 12.500000
vn -0.479141 -0.544409 0.688508
v 2.147193 1.680453 12.500000
vn -0.380243 -0.617554 0.688508
v 1.703999 2.008237 12.500000
vn -0.270406 -0.672932 0.688508
v 1.211783 2.256407 12.500000
vn -0.152791 -0.708952 0.688508
v 0.684708 2.417822 12.500000
vn -0.030780 -0.724575 0.688508
v 0.137934 2.487839 12.500000
vn 0.092117 -0.719355 0.688508
v -0.412808 2.464445 12.500000
vn 0.212364 -0.693440 0.688508
v -0.951674 2.348310 12.500000
vn 0.326501 -0.647576 0.688508
v -1.463162 2.142777 12.500000
vn 0.431245 -0.583082 0.688508
v -1.932558 1.853758 12.500000
vn 0.523583 -0.501814 0.688508
v -2.346357 1.489569 12.500000
vn 0.600859 -0.406110 0.688508
v -2.692657 1.060686 12.500000
vn 0.660849 -0.298723 0.688508
v -2.961493 0.579447 12.500000
vn 0.701828 -0.182742 0.688508
v -3.145132 0.059697 12.500000
vn 0.722616 -0.061504 0.688508
v -3.238292 -0.483613 12.500000
vn 0.722616 0.061504 0.688508
v -3.238292 -1.034852 12.500000
vn 0.701828 0.182742 0.688508
v -3.145132 -1.578161 12.500000
vn 0.660849 0.298723 0.688508
v -2.961493 -2.097911 12.500000
vn 0.600859 0.406110 0.688508
v -2.692657 -2.579150 12.500000
vn 0.523583 0.501814 0.688508
v -2.346357 -3.008034 12.500000
vn 0.431245 0.583082 0.688508
v -1.932558 -3.372223 12.500000
vn 0.326501 0.647576 0.688508
v -1.463162 -3.661241 12.500000
vn 0.212364 0.693440 0.688508
v -0.951674 -3.866774 12.500000
vn 0.092117 0.719355 0.688508
v -0.412808 -3.982909 12.500000
vn -0.030780 0.724576 0.688508
v 0.137934 -4.006304 12.500000
vn -0.152791 0.708951 0.688508
v 0.684708 -3.936286 12.500000
vn -0.270406 0.672932 0.688508
v 1.211783 -3.774871 12.500000
vn -0.380243 0.617554 0.688508
v 1.703999 -3.526702 12.500000
vn -0.479141 0.544409 0.688508
v 2.147193 -3.198917 12.500000
vn -0.564254 0.455603 0.688508
v 2.528616 -2.800947 12.500000
vn -0.633135 0.353690 0.688508
v 2.837296 -2.344241 12.500000
vn -0.683802 0.241603 0.688508
v 3.064351 -1.841936 12.500000
vn -0.714797 0.122565 0.688508
v 3.203252 -1.308485 12.500000
vn 0.000000 0.000000 1.000000
v 0.000000 -0.759232 12.500000
# 185 vertices, 0 vertices normals

f 1//1 2//2 3//3
f 3//3 2//2 4//4
f 1//1 5//5 6//6
f 1//1 6//6 7//7
f 7//7 6//6 8//8
f 7//7 8//8 9//9
f 9//9 8//8 10//10
f 9//9 10//10 11//11
f 11//11 10//10 12//12
f 11//11 12//12 13//13
f 13//13 12//12 14//14
f 13//13 14//14 15//15
f 15//15 14//14 16//16
f 15//15 16//16 17//17
f 17//17 16//16 18//18
f 17//17 18//18 19//19
f 19//19 18//18 20//20
f 19//19 20//20 21//21
f 21//21 20//20 22//22
f 21//21 22//22 23//23
f 23//23 22//22 24//24
f 23//23 24//24 25//25
f 25//25 24//24 26//26
f 25//25 26//26 27//27
f 27//27 26//26 28//28
f 27//27 28//28 29//29
f 29//29 28//28 30//30
f 29//29 30//30 31//31
f 31//31 30//30 32//32
f 31//31 32//32 33//33
f 33//33 32//32 34//34
f 33//33 34//34 35//35
f 35//35 34//34 36//36
f 35//35 36//36 37//37
f 37//37 36//36 38//38
f 37//37 38//38 39//39
f 39//39 38//38 40//40
f 39//39 40//40 41//41
f 41//41 40//40 42//42
f 41//41 42//42 43//43
f 43//43 42//42 44//44
f 43//43 44//44 45//45
f 45//45 44//44 46//46
f 45//45 46//46 47//47
f 47//47 46//46 48//48
f 47//47 48//48 49//49
f 49//49 48//48 50//50
f 49//49 50//50 51//51
f 51//51 50//50 52//52
f 51//51 52//52 53//53
f 53//53 52//52 54//54
f 53//53 54//54 55//55
f 55//55 54//54 56//56
f 55//55 56//56 57//57
f 57//57 56//56 58//58
f 57//57 58//58 59//59
f 59//59 58//58 60//60
f 59//59 60//60 61//61
f 61//61 60//60 62//62
f 61//61 62//62 63//63
f 63//63 62//62 64//64
f 63//63 64//64 65//65
f 65//65 64//64 66//66
f 65//65 66//66 67//67
f 67//67 66//66 68//68
f 67//67 68//68 69//69
f 69//69 68//68 70//70
f 69//69 70//70 71//71
f 72//72 71//71 73//73
f 73//73 71//71 74//74
f 2//2 72//72 4//4
f 4//4 72//72 73//73
f 75//75 71//71 76//76
f 76//76 71//71 77//77
f 72//72 2//2 71//71
f 71//71 2//2 1//1
f 71//71 1//1 77//77
f 78//78 79//79 1//1
f 1//1 79//79 80//80
f 80//80 81//81 1//1
f 1//1 81//81 82//82
f 1//1 82//82 77//77
f 1//1 7//7 78//78
f 78//78 7//7 9//9
f 78//78 9//9 11//11
f 75//75 83//83 71//71
f 71//71 83//83 84//84
f 71//71 84//84 69//69
f 69//69 84//84 85//85
f 69//69 85//85 67//67
f 67//67 85//85 86//86
f 67//67 86//86 65//65
f 65//65 86//86 87//87
f 65//65 87//87 63//63
f 63//63 87//87 88//88
f 63//63 88//88 61//61
f 61//61 88//88 89//89
f 61//61 89//89 59//59
f 59//59 89//89 90//90
f 59//59 90//90 57//57
f 57//57 90//90 91//91
f 57//57 91//91 55//55
f 55//55 91//91 92//92
f 55//55 92//92 53//53
f 53//53 92//92 93//93
f 53//53 93//93 51//51
f 51//51 93//93 94//94
f 51//51 94//94 49//49
f 49//49 94//94 95//95
f 49//49 95//95 47//47
f 47//47 95//95 96//96
f 47//47 96//96 45//45
f 45//45 96//96 97//97
f 45//45 97//97 43//43
f 43//43 97//97 98//98
f 43//43 98//98 41//41
f 41//41 98//98 99//99
f 41//41 99//99 39//39
f 39//39 99//99 100//100
f 39//39 100//100 37//37
f 37//37 100//100 101//101
f 37//37 101//101 35//35
f 35//35 101//101 102//102
f 35//35 102//102 33//33
f 33//33 102//102 103//103
f 33//33 103//103 31//31
f 31//31 103//103 104//104
f 31//31 104//104 29//29
f 29//29 104//104 105//105
f 29//29 105//105 27//27
f 27//27 105//105 106//106
f 27//27 106//106 25//25
f 25//25 106//106 107//107
f 25//25 107//107 23//23
f 23//23 107//107 108//108
f 23//23 108//108 21//21
f 21//21 108//108 109//109
f 21//21 109//109 19//19
f 19//19 109//109 110//110
f 19//19 110//110 17//17
f 17//17 110//110 111//111
f 17//17 111//111 15//15
f 15//15 111//111 78//78
f 15//15 78//78 13//13
f 13//13 78//78 11//11
f 112//112 113//113 114//114
f 114//114 113//113 115//115
f 116//116 117//117 118//118
f 118//118 117//117 119//119
f 118//118 119//119 120//120
f 121//121 122//122 123//123
f 123//123 122//122 118//118
f 123//123 118//118 124//124
f 124//124 118//118 125//125
f 120//120 126//126 118//118
f 118//118 126//126 127//127
f 118//118 127//127 125//125
f 128//128 129//129 130//130
f 131//131 132//132 118//118
f 118//118 132//132 133//133
f 118//118 133//133 134//134
f 134//134 135//135 118//118
f 118//118 135//135 136//136
f 118//118 136//136 137//137
f 130//130 138//138 128//128
f 128//128 138//138 139//139
f 128//128 139//139 140//140
f 140//140 139//139 114//114
f 114//114 139//139 141//141
f 114//114 141//141 142//142
f 137//137 143//143 118//118
f 118//118 143//143 144//144
f 118//118 144//144 116//116
f 142//142 145//145 114//114
f 114//114 145//145 146//146
f 114//114 146//146 112//112
f 115//115 113//113 118//118
f 118//118 113//113 147//147
f 118//118 147//147 131//131
f 148//148 91//91 149//149
f 149//149 91//91 90//90
f 149//149 90//90 150//150
f 150//150 90//90 89//89
f 150//150 89//89 151//151
f 151//151 89//89 88//88
f 151//151 88//88 152//152
f 152//152 88//88 87//87
f 152//152 87//87 153//153
f 153//153 87//87 86//86
f 153//153 86//86 154//154
f 154//154 86//86 85//85
f 154//154 85//85 155//155
f 155//155 85//85 84//84
f 155//155 84//84 156//156
f 156//156 84//84 83//83
f 156//156 83//83 157//157
f 157//157 83//83 75//75
f 157//157 75//75 158//158
f 158//158 75//75 76//76
f 158//158 76//76 159//159
f 159//159 76//76 77//77
f 159//159 77//77 160//160
f 160//160 77//77 82//82
f 160//160 82//82 161//161
f 161//161 82//82 81//81
f 161//161 81//81 162//162
f 162//162 81//81 80//80
f 162//162 80//80 163//163
f 163//163 80//80 79//79
f 163//163 79//79 164//164
f 164//164 79//79 78//78
f 164//164 78//78 165//165
f 165//165 78//78 111//111
f 165//165 111//111 166//166
f 166//166 111//111 110//110
f 166//166 110//110 167//167
f 167//167 110//110 109//109
f 167//167 109//109 168//168
f 168//168 109//109 108//108
f 168//168 108//108 169//169
f 169//169 108//108 107//107
f 169//169 107//107 170//170
f 170//170 107//107 106//106
f 170//170 106//106 171//171
f 171//171 106//106 105//105
f 171//171 105//105 172//172
f 172//172 105//105 104//104
f 172//172 104//104 173//173
f 173//173 104//104 103//103
f 173//173 103//103 174//174
f 174//174 103//103 102//102
f 174//174 102//102 175//175
f 175//175 102//102 101//101
f 175//175 101//101 176//176
f 176//176 101//101 100//100
f 176//176 100//100 177//177
f 177//177 100//100 99//99
f 177//177 99//99 178//178
f 178//178 99//99 98//98
f 178//178 98//98 179//179
f 179//179 98//98 97//97
f 179//179 97//97 180//180
f 180//180 97//97 96//96
f 180//180 96//96 181//181
f 181//181 96//96 95//95
f 181//181 95//95 182//182
f 182//182 95//95 94//94
f 182//182 94//94 183//183
f 183//183 94//94 93//93
f 183//183 93//93 184//184
f 184//184 93//93 92//92
f 184//184 92//92 148//148
f 148//148 92//92 91//91
f 148//148 149//149 185//185
f 182//182 183//183 185//185
f 185//185 183//183 184//184
f 185//185 184//184 148//148
f 179//179 180//180 185//185
f 185//185 180//180 181//181
f 185//185 181//181 182//182
f 176//176 177//177 185//185
f 185//185 177//177 178//178
f 185//185 178//178 179//179
f 173//173 174//174 185//185
f 185//185 174//174 175//175
f 185//185 175//175 176//176
f 170//170 171//171 185//185
f 185//185 171//171 172//172
f 185//185 172//172 173//173
f 167//167 168//168 185//185
f 185//185 168//168 169//169
f 185//185 169//169 170//170
f 164//164 165//165 185//185
f 185//185 165//165 166//166
f 185//185 166//166 167//167
f 161//161 162//162 185//185
f 185//185 162//162 163//163
f 185//185 163//163 164//164
f 158//158 159//159 185//185
f 185//185 159//159 160//160
f 185//185 160//160 161//161
f 155//155 156//156 185//185
f 185//185 156//156 157//157
f 185//185 157//157 158//158
f 152//152 153//153 185//185
f 185//185 153//153 154//154
f 185//185 154//154 155//155
f 149//149 150//150 185//185
f 185//185 150//150 151//151
f 185//185 151//151 152//152
# 290 faces, 0 coords texture

# End of File
